<svg width="163" height="148" viewBox="0 0 163 148" fill="none" xmlns="http://www.w3.org/2000/svg">
    <path d="M61.4445 47.6273C61.4445 47.6273 54.5619 35.7201 54.2235 34.8365C53.8851 33.9529 54.5186 32.887 55.6352 32.4593C56.7518 32.0316 57.9348 32.4005 58.2737 33.2853C58.6126 34.1701 61.4445 47.6273 61.4445 47.6273Z" fill="white"/>
    <path d="M62.5785 50.5881C62.5785 50.5881 69.4607 62.4941 69.7995 63.3789C70.1384 64.2637 69.5045 65.3285 68.3879 65.7561C67.2712 66.1838 66.0887 65.8161 65.7494 64.9301C65.41 64.0441 62.5785 50.5881 62.5785 50.5881Z" fill="white"/>
    <path d="M60.5303 49.6744C60.5303 49.6744 48.6243 56.5565 47.7407 56.8949C46.8559 57.2338 45.7916 56.6011 45.3635 55.4833C44.9358 54.3666 45.3052 53.1848 46.1899 52.8459C47.0736 52.5075 60.5303 49.6744 60.5303 49.6744Z" fill="white"/>
    <path d="M63.4923 48.5399C63.4923 48.5399 75.3988 41.6589 76.2836 41.3201C77.1672 40.9816 78.2326 41.6139 78.6603 42.7305C79.0884 43.8484 78.7191 45.0302 77.8343 45.369C76.9495 45.7079 63.4923 48.5399 63.4923 48.5399Z" fill="white"/>
    <path d="M60.5628 48.4629C60.5628 48.4629 47.2783 44.9106 46.4152 44.5236C45.5503 44.1387 45.2441 42.939 45.7328 41.8457C46.2203 40.7529 47.3165 40.1798 48.1814 40.5647C49.044 40.9505 60.5628 48.4629 60.5628 48.4629Z" fill="white"/>
    <path d="M63.4608 49.7537C63.4608 49.7537 76.7453 53.306 77.6083 53.693C78.4737 54.079 78.7795 55.2776 78.2913 56.372C77.8037 57.4648 76.7075 58.038 75.8421 57.6519C74.9791 57.2649 63.4608 49.7537 63.4608 49.7537Z" fill="white"/>
    <path d="M61.3647 50.5565C61.3647 50.5565 57.8108 63.8403 57.4271 64.7048C57.041 65.5702 55.8424 65.876 54.7496 65.3885C53.6552 64.9002 53.0821 63.804 53.4682 62.9386C53.8519 62.0741 61.3647 50.5565 61.3647 50.5565Z" fill="white"/>
    <path d="M62.6589 47.6601C62.6589 47.6601 66.2123 34.3751 66.5965 33.5118C66.983 32.6476 68.1816 32.3418 69.2744 32.8293C70.3684 33.3164 70.9419 34.4138 70.5554 35.278C70.1717 36.1425 62.6589 47.6601 62.6589 47.6601Z" fill="white"/>
    <path d="M60.0674 47.0208C60.0674 47.0208 41.8245 30.6074 40.6629 29.3595C39.5014 28.1116 39.2694 26.4399 40.1452 25.6242C41.0222 24.8082 42.6731 25.1593 43.8347 26.4072C44.9953 27.6527 60.0674 47.0208 60.0674 47.0208Z" fill="white"/>
    <path d="M63.9566 51.1971C63.9566 51.1971 82.1991 67.6093 83.3611 68.8584C84.5222 70.1051 84.7542 71.7769 83.8779 72.5913C83.0014 73.4085 81.3509 73.0586 80.1894 71.8107C79.0278 70.5628 63.9566 51.1971 63.9566 51.1971Z" fill="white"/>
    <path d="M59.9231 51.0531C59.9231 51.0531 43.5097 69.2961 42.2618 70.4576C41.0144 71.6204 39.3422 71.8512 38.5261 70.9742C37.711 70.0996 38.0611 68.4463 39.309 67.2847C40.5558 66.1236 59.9231 51.0531 59.9231 51.0531Z" fill="white"/>
    <path d="M64.1004 47.1635C64.1004 47.1635 80.5139 28.9206 81.7617 27.759C83.0092 26.5962 84.6818 26.3666 85.4974 27.2424C86.313 28.1183 85.9624 29.7703 84.7145 30.9319C83.4673 32.0918 64.1004 47.1635 64.1004 47.1635Z" fill="white"/>
    <path d="M59.1598 49.007C59.1598 49.007 34.6535 50.3021 32.9508 50.2407C31.2485 50.1806 29.9022 49.1621 29.9441 47.9647C29.9869 46.7696 31.4041 45.8483 33.1068 45.9097C34.8086 45.9686 59.1598 49.007 59.1598 49.007Z" fill="white"/>
    <path d="M64.8637 49.2096C64.8637 49.2096 89.3701 47.9145 91.0723 47.9747C92.775 48.036 94.1218 49.0556 94.079 50.2507C94.0371 51.4482 92.6199 52.3694 90.9167 52.3069C89.2145 52.2468 64.8637 49.2096 64.8637 49.2096Z" fill="white"/>
    <path d="M61.9105 51.9603C61.9105 51.9603 63.2055 76.4666 63.1446 78.1705C63.0833 79.8732 62.0649 81.2195 60.8686 81.1772C59.6719 81.1337 58.7523 79.7171 58.8112 78.0153C58.8733 76.311 61.9105 51.9603 61.9105 51.9603Z" fill="white"/>
    <path d="M62.1131 46.2564C62.1131 46.2564 60.818 21.75 60.8794 20.0473C60.9402 18.3434 61.9591 16.9983 63.1554 17.0406C64.3517 17.083 65.272 18.4979 65.2123 20.2013C65.1503 21.9056 62.1131 46.2564 62.1131 46.2564Z" fill="white"/>
    <path d="M68.8336 66.8985C68.8336 66.8985 76.5168 80.889 76.9109 81.9181C77.3051 82.9472 76.7197 84.1317 75.6019 84.5599C74.4841 84.988 73.2586 84.5011 72.864 83.4708C72.4694 82.4405 68.8336 66.8985 68.8336 66.8985Z" fill="white"/>
    <path d="M54.725 30.1006C54.725 30.1006 47.4103 17.0757 47.042 16.114C46.6737 15.1524 47.2803 14.0235 48.3981 13.5953C49.5159 13.1672 50.7206 13.5997 51.0893 14.5626C51.4581 15.5254 54.725 30.1006 54.725 30.1006Z" fill="white"/>
    <path d="M79.4332 56.8461C79.4332 56.8461 94.7596 61.3064 95.7645 61.7557C96.7734 62.2048 97.1937 63.4545 96.7067 64.5485C96.2191 65.6412 95.0072 66.1637 94.0011 65.7149C92.9943 65.2677 79.4332 56.8461 79.4332 56.8461Z" fill="white"/>
    <path d="M43.4371 40.8029C43.4371 40.8029 29.0551 36.765 28.1132 36.3458C27.1721 35.9249 26.8042 34.6986 27.2917 33.6058C27.7788 32.5118 28.9383 31.966 29.8794 32.3868C30.8208 32.8049 43.4371 40.8029 43.4371 40.8029Z" fill="white"/>
    <path d="M69.783 31.6497C69.783 31.6497 74.2498 16.3262 74.6998 15.3196C75.1482 14.3124 76.399 13.8916 77.4923 14.3803C78.5851 14.8679 79.1076 16.0798 78.6563 17.0868C78.2082 18.0912 69.783 31.6497 69.783 31.6497Z" fill="white"/>
    <path d="M53.7135 67.6341C53.7135 67.6341 49.6683 82.0149 49.247 82.9549C48.8278 83.8967 47.5998 84.2639 46.507 83.7764C45.4138 83.2877 44.8684 82.1293 45.288 81.1887C45.7089 80.2475 53.7135 67.6341 53.7135 67.6341Z" fill="white"/>
    <path d="M79.8209 42.244C79.8209 42.244 93.8114 34.5608 94.8417 34.1662C95.8715 33.7704 97.0541 34.3578 97.4818 35.4745C97.9111 36.5918 97.4247 37.8185 96.3944 38.2131C95.3645 38.6089 79.8209 42.244 79.8209 42.244Z" fill="white"/>
    <path d="M43.0247 56.3533C43.0247 56.3533 29.9965 63.6666 29.0365 64.0356C28.0725 64.4049 26.9455 63.7961 26.5178 62.6795C26.0897 61.5617 26.5217 60.3559 27.4857 59.9866C28.4462 59.6188 43.0247 56.3533 43.0247 56.3533Z" fill="white"/>
    <path d="M37.3116 24.5366C38.5136 24.0762 39.1149 22.7286 38.6545 21.5265C38.1941 20.3245 36.8464 19.7232 35.6444 20.1836C34.4424 20.644 33.8411 21.9917 34.3015 23.1937C34.7619 24.3957 36.1096 24.997 37.3116 24.5366Z" fill="white"/>
    <path d="M64.3001 14.2001C65.5021 13.7397 66.1034 12.392 65.643 11.19C65.1826 9.98792 63.8349 9.38668 62.6329 9.84707C61.4308 10.3074 60.8296 11.6551 61.29 12.8572C61.7504 14.0592 63.098 14.6604 64.3001 14.2001Z" fill="white"/>
    <path d="M61.1302 88.5643C62.3329 88.1036 62.9345 86.7552 62.4738 85.5525C62.0132 84.3499 60.6648 83.7483 59.4621 84.2089C58.2594 84.6696 57.6578 86.018 58.1185 87.2206C58.5791 88.4233 59.9275 89.0249 61.1302 88.5643Z" fill="white"/>
    <path d="M88.1187 78.2277C89.3214 77.767 89.923 76.4186 89.4624 75.2159C89.0017 74.0132 87.6533 73.4117 86.4506 73.8723C85.2479 74.3329 84.6464 75.6813 85.107 76.884C85.5676 78.0867 86.916 78.6883 88.1187 78.2277Z" fill="white"/>
    <path d="M35.87 76.7849C37.072 76.3245 37.6733 74.9768 37.2129 73.7748C36.7525 72.5728 35.4048 71.9715 34.2028 72.4319C33.0008 72.8923 32.3995 74.24 32.8599 75.442C33.3203 76.644 34.6679 77.2453 35.87 76.7849Z" fill="white"/>
    <path d="M25.5334 49.7964C26.7354 49.336 27.3367 47.9883 26.8763 46.7863C26.4159 45.5842 25.0682 44.983 23.8662 45.4434C22.6641 45.9038 22.0629 47.2514 22.5233 48.4535C22.9837 49.6555 24.3313 50.2568 25.5334 49.7964Z" fill="white"/>
    <path d="M99.8969 52.9679C101.1 52.5073 101.701 51.1589 101.241 49.9562C100.78 48.7535 99.4315 48.1519 98.2288 48.6125C97.0261 49.0732 96.4246 50.4216 96.8852 51.6243C97.3458 52.827 98.6942 53.4285 99.8969 52.9679Z" fill="white"/>
    <path d="M89.5598 25.9781C90.7619 25.5177 91.3631 24.1701 90.9027 22.968C90.4424 21.766 89.0947 21.1648 87.8926 21.6251C86.6906 22.0855 86.0894 23.4332 86.5498 24.6352C87.0101 25.8373 88.3578 26.4385 89.5598 25.9781Z" fill="white"/>
    <path d="M135.5 96.4537C135.5 96.4537 133.931 86.6252 133.931 85.9404C133.931 85.2557 134.635 84.6993 135.5 84.6993C136.365 84.6993 137.069 85.2548 137.069 85.9404C137.069 86.6261 135.5 96.4537 135.5 96.4537Z" fill="white"/>
    <path d="M135.5 98.7481C135.5 98.7481 137.069 108.576 137.069 109.261C137.069 109.947 136.365 110.503 135.5 110.503C134.635 110.503 133.931 109.948 133.931 109.261C133.931 108.575 135.5 98.7481 135.5 98.7481Z" fill="white"/>
    <path d="M134.352 97.6004C134.352 97.6004 124.525 99.1697 123.84 99.1697C123.154 99.1697 122.599 98.4667 122.599 97.6004C122.599 96.7351 123.154 96.032 123.84 96.032C124.525 96.032 134.352 97.6004 134.352 97.6004Z" fill="white"/>
    <path d="M136.648 97.6004C136.648 97.6004 146.475 96.032 147.161 96.032C147.846 96.032 148.402 96.7351 148.402 97.6004C148.402 98.4667 147.847 99.1697 147.161 99.1697C146.475 99.1697 136.648 97.6004 136.648 97.6004Z" fill="white"/>
    <path d="M134.688 96.7901C134.688 96.7901 126.629 90.9509 126.146 90.466C125.661 89.982 125.765 89.0919 126.378 88.4796C126.991 87.8673 127.88 87.7637 128.365 88.2477C128.848 88.7317 134.688 96.7901 134.688 96.7901Z" fill="white"/>
    <path d="M136.312 98.4125C136.312 98.4125 144.371 104.252 144.854 104.737C145.339 105.222 145.235 106.111 144.622 106.724C144.009 107.336 143.12 107.44 142.635 106.955C142.152 106.47 136.312 98.4125 136.312 98.4125Z" fill="white"/>
    <path d="M134.688 98.4125C134.688 98.4125 128.848 106.47 128.365 106.955C127.88 107.44 126.991 107.336 126.378 106.724C125.765 106.111 125.661 105.222 126.146 104.737C126.629 104.252 134.688 98.4125 134.688 98.4125Z" fill="white"/>
    <path d="M136.312 96.7901C136.312 96.7901 142.152 88.7317 142.635 88.2477C143.12 87.7637 144.009 87.8673 144.622 88.4796C145.235 89.0919 145.339 89.982 144.854 90.466C144.371 90.9509 136.312 96.7901 136.312 96.7901Z" fill="white"/>
    <path d="M134.726 95.6873C134.726 95.6873 126.646 79.873 126.184 78.729C125.722 77.585 125.998 76.3952 126.801 76.0707C127.605 75.7462 128.63 76.4107 129.092 77.5547C129.554 78.6969 134.726 95.6873 134.726 95.6873Z" fill="white"/>
    <path d="M136.274 99.5164C136.274 99.5164 144.354 115.33 144.816 116.475C145.278 117.618 145.002 118.808 144.199 119.131C143.395 119.457 142.37 118.793 141.908 117.649C141.446 116.505 136.274 99.5164 136.274 99.5164Z" fill="white"/>
    <path d="M133.585 98.3751C133.585 98.3751 117.771 106.455 116.627 106.917C115.483 107.38 114.293 107.104 113.968 106.3C113.644 105.498 114.309 104.471 115.453 104.009C116.596 103.547 133.585 98.3751 133.585 98.3751Z" fill="white"/>
    <path d="M137.415 96.8276C137.415 96.8276 153.229 88.7472 154.373 88.2852C155.517 87.8223 156.707 88.1001 157.032 88.9031C157.356 89.7061 156.691 90.7318 155.547 91.1938C154.404 91.6549 137.415 96.8276 137.415 96.8276Z" fill="white"/>
    <path d="M133.599 96.7947C133.599 96.7947 116.702 91.3268 115.567 90.8446C114.432 90.3633 113.786 89.3266 114.124 88.5282C114.462 87.7316 115.659 87.4758 116.794 87.958C117.928 88.4383 133.599 96.7947 133.599 96.7947Z" fill="white"/>
    <path d="M137.401 98.408C137.401 98.408 154.298 103.876 155.433 104.357C156.568 104.839 157.214 105.877 156.876 106.674C156.537 107.472 155.341 107.728 154.206 107.245C153.072 106.763 137.401 98.408 137.401 98.408Z" fill="white"/>
    <path d="M134.693 99.5025C134.693 99.5025 129.225 116.399 128.743 117.535C128.261 118.67 127.224 119.316 126.427 118.978C125.629 118.639 125.374 117.444 125.855 116.309C126.338 115.173 134.693 99.5025 134.693 99.5025Z" fill="white"/>
    <path d="M136.307 95.7003C136.307 95.7003 141.775 78.8033 142.257 77.6685C142.739 76.5328 143.776 75.8874 144.573 76.2257C145.371 76.5639 145.626 77.7583 145.145 78.8941C144.662 80.0298 136.307 95.7003 136.307 95.7003Z" fill="white"/>
    <path d="M135.505 111.39C135.505 111.39 137.077 122.834 137.077 123.631C137.077 124.429 136.374 125.078 135.508 125.078C134.642 125.078 133.94 124.431 133.94 123.633C133.94 122.834 135.505 111.39 135.505 111.39Z" fill="white"/>
    <path d="M135.495 82.8696C135.495 82.8696 133.923 72.1739 133.923 71.4287C133.923 70.6834 134.626 70.0775 135.492 70.0775C136.358 70.0775 137.06 70.6816 137.06 71.4278C137.06 72.1739 135.495 82.8696 135.495 82.8696Z" fill="white"/>
    <path d="M145.271 107.34C145.271 107.34 154.474 114.321 155.037 114.885C155.603 115.45 155.563 116.403 154.951 117.016C154.338 117.629 153.384 117.668 152.82 117.104C152.256 116.541 145.271 107.34 145.271 107.34Z" fill="white"/>
    <path d="M125.097 87.1807C125.097 87.1807 116.422 80.7292 115.894 80.2021C115.367 79.6741 115.436 78.7501 116.048 78.1378C116.661 77.5245 117.586 77.4558 118.113 77.9838C118.641 78.5099 125.097 87.1807 125.097 87.1807Z" fill="white"/>
    <path d="M145.271 87.8141C145.271 87.8141 152.256 78.6144 152.82 78.0507C153.384 77.486 154.338 77.5254 154.951 78.1387C155.563 78.751 155.603 79.7053 155.037 80.269C154.474 80.8319 145.271 87.8141 145.271 87.8141Z" fill="white"/>
    <path d="M125.097 107.973C125.097 107.973 118.641 116.645 118.113 117.171C117.586 117.699 116.661 117.63 116.048 117.017C115.436 116.404 115.367 115.48 115.894 114.953C116.422 114.426 125.097 107.973 125.097 107.973Z" fill="white"/>
    <path d="M149.312 97.572C149.312 97.572 160.756 96.0008 161.554 96.0008C162.353 95.9999 163 96.703 163 97.5683C163.001 98.4345 162.355 99.1376 161.556 99.1376C160.758 99.1385 149.312 97.572 149.312 97.572Z" fill="white"/>
    <path d="M120.793 97.5831C120.793 97.5831 110.096 99.1533 109.351 99.1542C108.604 99.1542 108 98.4511 108 97.5858C108 96.7196 108.604 96.0165 109.351 96.0165C110.096 96.0165 120.793 97.5831 120.793 97.5831Z" fill="white"/>
    <path d="M125.167 74.6022C126.099 74.6022 126.854 73.8471 126.854 72.9155C126.854 71.984 126.099 71.2289 125.167 71.2289C124.236 71.2289 123.481 71.984 123.481 72.9155C123.481 73.8471 124.236 74.6022 125.167 74.6022Z" fill="white"/>
    <path d="M146.082 74.6022C147.014 74.6022 147.769 73.8471 147.769 72.9155C147.769 71.984 147.014 71.2289 146.082 71.2289C145.15 71.2289 144.395 71.984 144.395 72.9155C144.395 73.8471 145.15 74.6022 146.082 74.6022Z" fill="white"/>
    <path d="M124.692 124.038C125.624 124.038 126.379 123.282 126.379 122.35C126.379 121.418 125.624 120.663 124.692 120.663C123.76 120.663 123.004 121.418 123.004 122.35C123.004 123.282 123.76 124.038 124.692 124.038Z" fill="white"/>
    <path d="M145.606 124.038C146.538 124.038 147.294 123.282 147.294 122.35C147.294 121.418 146.538 120.663 145.606 120.663C144.674 120.663 143.919 121.418 143.919 122.35C143.919 123.282 144.674 124.038 145.606 124.038Z" fill="white"/>
    <path d="M110.669 109.539C111.601 109.539 112.356 108.784 112.356 107.852C112.356 106.921 111.601 106.166 110.669 106.166C109.738 106.166 108.983 106.921 108.983 107.852C108.983 108.784 109.738 109.539 110.669 109.539Z" fill="white"/>
    <path d="M110.669 88.6244C111.601 88.6244 112.356 87.8693 112.356 86.9378C112.356 86.0062 111.601 85.2511 110.669 85.2511C109.738 85.2511 108.983 86.0062 108.983 86.9378C108.983 87.8693 109.738 88.6244 110.669 88.6244Z" fill="white"/>
    <path d="M160.104 110.016C161.036 110.016 161.792 109.26 161.792 108.328C161.792 107.396 161.036 106.641 160.104 106.641C159.172 106.641 158.417 107.396 158.417 108.328C158.417 109.26 159.172 110.016 160.104 110.016Z" fill="white"/>
    <path d="M160.104 89.1001C161.036 89.1001 161.791 88.3449 161.791 87.4134C161.791 86.4819 161.036 85.7267 160.104 85.7267C159.173 85.7267 158.418 86.4819 158.418 87.4134C158.418 88.3449 159.173 89.1001 160.104 89.1001Z" fill="white"/>
    <path d="M36 128.342C36 128.342 34.9728 121.909 34.9728 121.461C34.9728 121.012 35.4336 120.648 36 120.648C36.5664 120.648 37.0272 121.012 37.0272 121.461C37.0272 121.909 36 128.342 36 128.342Z" fill="white"/>
    <path d="M36 129.844C36 129.844 37.0272 136.276 37.0272 136.725C37.0272 137.174 36.5664 137.538 36 137.538C35.4336 137.538 34.9728 137.175 34.9728 136.725C34.9728 136.276 36 129.844 36 129.844Z" fill="white"/>
    <path d="M35.2488 129.093C35.2488 129.093 28.8162 130.12 28.368 130.12C27.9192 130.12 27.5556 129.66 27.5556 129.093C27.5556 128.526 27.9192 128.066 28.368 128.066C28.8162 128.066 35.2488 129.093 35.2488 129.093Z" fill="white"/>
    <path d="M36.7512 129.093C36.7512 129.093 43.1838 128.066 43.6326 128.066C44.0808 128.066 44.445 128.526 44.445 129.093C44.445 129.66 44.0814 130.12 43.6326 130.12C43.1838 130.12 36.7512 129.093 36.7512 129.093Z" fill="white"/>
    <path d="M35.4684 128.562C35.4684 128.562 30.1938 124.74 29.8776 124.423C29.5602 124.106 29.628 123.523 30.0294 123.123C30.4302 122.722 31.0122 122.654 31.3296 122.971C31.6458 123.288 35.4684 128.562 35.4684 128.562Z" fill="white"/>
    <path d="M36.5316 129.624C36.5316 129.624 41.8062 133.446 42.1224 133.763C42.4398 134.081 42.372 134.663 41.9706 135.064C41.5698 135.465 40.9878 135.533 40.6704 135.215C40.3542 134.898 36.5316 129.624 36.5316 129.624Z" fill="white"/>
    <path d="M35.4684 129.624C35.4684 129.624 31.6458 134.898 31.3296 135.215C31.0122 135.533 30.4302 135.465 30.0294 135.064C29.628 134.663 29.5602 134.081 29.8776 133.763C30.1938 133.446 35.4684 129.624 35.4684 129.624Z" fill="white"/>
    <path d="M36.5316 128.562C36.5316 128.562 40.3542 123.288 40.6704 122.971C40.9878 122.654 41.5698 122.722 41.9706 123.123C42.372 123.523 42.4398 124.106 42.1224 124.423C41.8062 124.74 36.5316 128.562 36.5316 128.562Z" fill="white"/>
    <path d="M35.4936 127.84C35.4936 127.84 30.2046 117.489 29.9022 116.74C29.5998 115.992 29.7804 115.213 30.306 115C30.8322 114.788 31.503 115.223 31.8054 115.972C32.1078 116.719 35.4936 127.84 35.4936 127.84Z" fill="white"/>
    <path d="M36.5064 130.347C36.5064 130.347 41.7954 140.697 42.0978 141.447C42.4002 142.195 42.2196 142.974 41.694 143.185C41.1678 143.398 40.497 142.964 40.1946 142.215C39.8922 141.466 36.5064 130.347 36.5064 130.347Z" fill="white"/>
    <path d="M34.7466 129.6C34.7466 129.6 24.3954 134.889 23.6466 135.191C22.8978 135.494 22.119 135.313 21.9066 134.787C21.6942 134.262 22.1292 133.59 22.878 133.287C23.6262 132.985 34.7466 129.6 34.7466 129.6Z" fill="white"/>
    <path d="M37.2534 128.587C37.2534 128.587 47.6046 123.298 48.3534 122.995C49.1022 122.692 49.881 122.874 50.0934 123.4C50.3058 123.925 49.8708 124.597 49.122 124.899C48.3738 125.201 37.2534 128.587 37.2534 128.587Z" fill="white"/>
    <path d="M34.7556 128.565C34.7556 128.565 23.6958 124.986 22.953 124.671C22.2102 124.356 21.7872 123.677 22.0086 123.154C22.23 122.633 23.013 122.466 23.7558 122.781C24.4986 123.096 34.7556 128.565 34.7556 128.565Z" fill="white"/>
    <path d="M37.2444 129.621C37.2444 129.621 48.3042 133.2 49.047 133.515C49.7898 133.831 50.2128 134.51 49.9914 135.031C49.77 135.554 48.987 135.721 48.2442 135.405C47.5014 135.09 37.2444 129.621 37.2444 129.621Z" fill="white"/>
    <path d="M35.472 130.338C35.472 130.338 31.893 141.397 31.5774 142.141C31.2618 142.884 30.5832 143.307 30.0612 143.085C29.5392 142.863 29.3724 142.081 29.6868 141.338C30.003 140.595 35.472 130.338 35.472 130.338Z" fill="white"/>
    <path d="M36.528 127.849C36.528 127.849 40.107 116.789 40.4226 116.046C40.7382 115.303 41.4168 114.88 41.9388 115.102C42.4608 115.323 42.6282 116.105 42.3132 116.848C41.997 117.592 36.528 127.849 36.528 127.849Z" fill="white"/>
    <path d="M36.0036 138.118C36.0036 138.118 37.032 145.609 37.032 146.131C37.032 146.653 36.5724 147.078 36.0054 147.078C35.4384 147.078 34.9788 146.655 34.9788 146.132C34.9788 145.609 36.0036 138.118 36.0036 138.118Z" fill="white"/>
    <path d="M35.997 119.451C35.997 119.451 34.968 112.45 34.968 111.962C34.968 111.474 35.4276 111.078 35.9946 111.078C36.5616 111.078 37.0212 111.473 37.0212 111.961C37.0212 112.45 35.997 119.451 35.997 119.451Z" fill="white"/>
    <path d="M42.3954 135.467C42.3954 135.467 48.4194 140.037 48.7878 140.406C49.158 140.776 49.1322 141.4 48.7314 141.801C48.3306 142.202 47.706 142.228 47.337 141.859C46.9674 141.49 42.3954 135.467 42.3954 135.467Z" fill="white"/>
    <path d="M29.1906 122.272C29.1906 122.272 23.5128 118.05 23.1672 117.705C22.8222 117.359 22.8672 116.754 23.268 116.353C23.6688 115.952 24.2742 115.907 24.6192 116.253C24.9648 116.597 29.1906 122.272 29.1906 122.272Z" fill="white"/>
    <path d="M42.3954 122.687C42.3954 122.687 46.9674 116.665 47.337 116.296C47.706 115.927 48.3306 115.953 48.7314 116.354C49.1322 116.755 49.158 117.379 48.7878 117.748C48.4194 118.117 42.3954 122.687 42.3954 122.687Z" fill="white"/>
    <path d="M29.1906 135.882C29.1906 135.882 24.9648 141.558 24.6192 141.903C24.2742 142.248 23.6688 142.203 23.268 141.802C22.8672 141.4 22.8222 140.796 23.1672 140.451C23.5128 140.106 29.1906 135.882 29.1906 135.882Z" fill="white"/>
    <path d="M45.0408 129.074C45.0408 129.074 52.5312 128.045 53.0538 128.045C53.5764 128.045 54 128.505 54 129.071C54.0006 129.638 53.5776 130.099 53.055 130.099C52.5324 130.099 45.0408 129.074 45.0408 129.074Z" fill="white"/>
    <path d="M26.3736 129.081C26.3736 129.081 19.3716 130.109 18.8844 130.11C18.3954 130.11 18 129.649 18 129.083C18 128.516 18.3954 128.056 18.8844 128.056C19.3716 128.056 26.3736 129.081 26.3736 129.081Z" fill="white"/>
    <path d="M29.2368 114.039C29.8465 114.039 30.3408 113.545 30.3408 112.935C30.3408 112.325 29.8465 111.831 29.2368 111.831C28.6271 111.831 28.1328 112.325 28.1328 112.935C28.1328 113.545 28.6271 114.039 29.2368 114.039Z" fill="white"/>
    <path d="M42.9264 114.039C43.5361 114.039 44.0304 113.545 44.0304 112.935C44.0304 112.325 43.5361 111.831 42.9264 111.831C42.3167 111.831 41.8224 112.325 41.8224 112.935C41.8224 113.545 42.3167 114.039 42.9264 114.039Z" fill="white"/>
    <path d="M28.9254 146.397C29.5355 146.397 30.03 145.903 30.03 145.293C30.03 144.682 29.5355 144.188 28.9254 144.188C28.3153 144.188 27.8208 144.682 27.8208 145.293C27.8208 145.903 28.3153 146.397 28.9254 146.397Z" fill="white"/>
    <path d="M42.615 146.397C43.2251 146.397 43.7196 145.903 43.7196 145.293C43.7196 144.682 43.2251 144.188 42.615 144.188C42.005 144.188 41.5104 144.682 41.5104 145.293C41.5104 145.903 42.005 146.397 42.615 146.397Z" fill="white"/>
    <path d="M19.7472 136.907C20.3569 136.907 20.8512 136.413 20.8512 135.803C20.8512 135.193 20.3569 134.699 19.7472 134.699C19.1375 134.699 18.6432 135.193 18.6432 135.803C18.6432 136.413 19.1375 136.907 19.7472 136.907Z" fill="white"/>
    <path d="M19.7472 123.217C20.3569 123.217 20.8512 122.723 20.8512 122.113C20.8512 121.504 20.3569 121.009 19.7472 121.009C19.1375 121.009 18.6432 121.504 18.6432 122.113C18.6432 122.723 19.1375 123.217 19.7472 123.217Z" fill="white"/>
    <path d="M52.1046 137.219C52.7147 137.219 53.2092 136.724 53.2092 136.114C53.2092 135.504 52.7147 135.01 52.1046 135.01C51.4946 135.01 51 135.504 51 136.114C51 136.724 51.4946 137.219 52.1046 137.219Z" fill="white"/>
    <path d="M52.1046 123.529C52.7143 123.529 53.2086 123.034 53.2086 122.425C53.2086 121.815 52.7143 121.321 52.1046 121.321C51.4949 121.321 51.0006 121.815 51.0006 122.425C51.0006 123.034 51.4949 123.529 52.1046 123.529Z" fill="white"/>
    <path d="M14 82.5054C14 82.5054 13.201 77.5018 13.201 77.1532C13.201 76.8046 13.5594 76.5214 14 76.5214C14.4405 76.5214 14.7989 76.8042 14.7989 77.1532C14.7989 77.5023 14 82.5054 14 82.5054Z" fill="white"/>
    <path d="M14 83.6735C14 83.6735 14.7989 88.6766 14.7989 89.0257C14.7989 89.3747 14.4405 89.6575 14 89.6575C13.5594 89.6575 13.201 89.3752 13.201 89.0257C13.201 88.6761 14 83.6735 14 83.6735Z" fill="white"/>
    <path d="M13.4157 83.0892C13.4157 83.0892 8.41261 83.8881 8.06401 83.8881C7.71494 83.8881 7.43214 83.5302 7.43214 83.0892C7.43214 82.6486 7.71494 82.2907 8.06401 82.2907C8.41261 82.2907 13.4157 83.0892 13.4157 83.0892Z" fill="white"/>
    <path d="M14.5843 83.0892C14.5843 83.0892 19.5874 82.2907 19.9365 82.2907C20.2851 82.2907 20.5683 82.6486 20.5683 83.0892C20.5683 83.5302 20.2855 83.8881 19.9365 83.8881C19.5874 83.8881 14.5843 83.0892 14.5843 83.0892Z" fill="white"/>
    <path d="M13.5865 82.6767C13.5865 82.6767 9.48405 79.704 9.23812 79.4572C8.99125 79.2108 9.04398 78.7576 9.35618 78.4459C9.66792 78.1342 10.1206 78.0814 10.3675 78.3278C10.6134 78.5742 13.5865 82.6767 13.5865 82.6767Z" fill="white"/>
    <path d="M14.4135 83.5026C14.4135 83.5026 18.5159 86.4753 18.7619 86.7222C19.0087 86.969 18.956 87.4217 18.6438 87.7339C18.3321 88.0456 17.8794 88.0984 17.6325 87.8515C17.3866 87.6046 14.4135 83.5026 14.4135 83.5026Z" fill="white"/>
    <path d="M13.5865 83.5026C13.5865 83.5026 10.6134 87.6046 10.3675 87.8515C10.1206 88.0984 9.66792 88.0456 9.35618 87.7339C9.04398 87.4217 8.99125 86.969 9.23812 86.7222C9.48405 86.4753 13.5865 83.5026 13.5865 83.5026Z" fill="white"/>
    <path d="M14.4135 82.6767C14.4135 82.6767 17.3866 78.5742 17.6325 78.3278C17.8794 78.0814 18.3321 78.1342 18.6438 78.4459C18.956 78.7576 19.0087 79.2108 18.7619 79.4572C18.5159 79.704 14.4135 82.6767 14.4135 82.6767Z" fill="white"/>
    <path d="M13.6061 82.1152C13.6061 82.1152 9.49246 74.0643 9.25726 73.4819C9.02206 72.8995 9.16252 72.2937 9.57132 72.1285C9.98059 71.9633 10.5023 72.3017 10.7375 72.8841C10.9727 73.4655 13.6061 82.1152 13.6061 82.1152Z" fill="white"/>
    <path d="M14.3939 84.0645C14.3939 84.0645 18.5075 92.115 18.7427 92.6978C18.9779 93.2798 18.8375 93.8855 18.4287 94.0502C18.0194 94.2159 17.4977 93.878 17.2625 93.2956C17.0273 92.7132 14.3939 84.0645 14.3939 84.0645Z" fill="white"/>
    <path d="M13.0251 83.4835C13.0251 83.4835 4.9742 87.5971 4.3918 87.8323C3.8094 88.068 3.20367 87.9271 3.03847 87.5178C2.87327 87.1095 3.2116 86.5868 3.794 86.3516C4.37594 86.1164 13.0251 83.4835 13.0251 83.4835Z" fill="white"/>
    <path d="M14.9749 82.6957C14.9749 82.6957 23.0258 78.5821 23.6082 78.3469C24.1906 78.1112 24.7963 78.2526 24.9615 78.6614C25.1267 79.0702 24.7884 79.5924 24.206 79.8276C23.6241 80.0623 14.9749 82.6957 14.9749 82.6957Z" fill="white"/>
    <path d="M13.0321 82.679C13.0321 82.679 4.43006 79.8953 3.85233 79.6499C3.2746 79.4049 2.9456 78.8771 3.1178 78.4706C3.29 78.0651 3.899 77.9349 4.47673 78.1803C5.05446 78.4249 13.0321 82.679 13.0321 82.679Z" fill="white"/>
    <path d="M14.9679 83.5003C14.9679 83.5003 23.5699 86.284 24.1477 86.529C24.7254 86.7744 25.0544 87.3027 24.8822 87.7082C24.71 88.1147 24.101 88.2449 23.5233 87.999C22.9455 87.754 14.9679 83.5003 14.9679 83.5003Z" fill="white"/>
    <path d="M13.5893 84.0576C13.5893 84.0576 10.8057 92.6596 10.5602 93.2378C10.3147 93.8156 9.78693 94.1446 9.38093 93.9724C8.97493 93.7997 8.8452 93.1912 9.08973 92.6134C9.33567 92.0352 13.5893 84.0576 13.5893 84.0576Z" fill="white"/>
    <path d="M14.4106 82.1219C14.4106 82.1219 17.1943 73.5198 17.4398 72.9421C17.6852 72.3639 18.213 72.0353 18.619 72.2075C19.025 72.3797 19.1552 72.9878 18.9102 73.566C18.6643 74.1442 14.4106 82.1219 14.4106 82.1219Z" fill="white"/>
    <path d="M14.0028 90.1092C14.0028 90.1092 14.8027 95.9351 14.8027 96.3411C14.8027 96.7471 14.4452 97.0775 14.0042 97.0775C13.5632 97.0775 13.2057 96.7485 13.2057 96.342C13.2057 95.9355 14.0028 90.1092 14.0028 90.1092Z" fill="white"/>
    <path d="M13.9977 75.5898C13.9977 75.5898 13.1973 70.1448 13.1973 69.7654C13.1973 69.386 13.5548 69.0775 13.9958 69.0775C14.4368 69.0775 14.7943 69.385 14.7943 69.7649C14.7943 70.1448 13.9977 75.5898 13.9977 75.5898Z" fill="white"/>
    <path d="M18.9742 88.0475C18.9742 88.0475 23.6595 91.6016 23.9461 91.8886C24.234 92.1761 24.2139 92.6614 23.9022 92.9736C23.5905 93.2854 23.1047 93.3054 22.8177 93.0184C22.5302 92.7319 18.9742 88.0475 18.9742 88.0475Z" fill="white"/>
    <path d="M8.7038 77.7846C8.7038 77.7846 4.28773 74.5002 4.01893 74.2319C3.7506 73.9631 3.7856 73.4927 4.09733 73.181C4.40906 72.8688 4.87993 72.8338 5.14826 73.1026C5.41706 73.3704 8.7038 77.7846 8.7038 77.7846Z" fill="white"/>
    <path d="M18.9742 78.107C18.9742 78.107 22.5302 73.4235 22.8177 73.1365C23.1047 72.8491 23.5905 72.8691 23.9022 73.1813C24.2139 73.4931 24.234 73.9789 23.9461 74.2659C23.6595 74.5524 18.9742 78.107 18.9742 78.107Z" fill="white"/>
    <path d="M8.7038 88.37C8.7038 88.37 5.41706 92.7847 5.14826 93.0525C4.87993 93.3213 4.40906 93.2859 4.09733 92.9741C3.7856 92.6619 3.7506 92.1915 4.01893 91.9232C4.28773 91.6549 8.7038 88.37 8.7038 88.37Z" fill="white"/>
    <path d="M21.0317 83.0746C21.0317 83.0746 26.8576 82.2748 27.2641 82.2748C27.6705 82.2743 28 82.6322 28 83.0728C28.0005 83.5138 27.6715 83.8717 27.265 83.8717C26.8585 83.8722 21.0317 83.0746 21.0317 83.0746Z" fill="white"/>
    <path d="M6.5128 83.0804C6.5128 83.0804 1.0668 83.8798 0.687867 83.8802C0.307533 83.8802 0 83.5223 0 83.0818C0 82.6408 0.307533 82.2828 0.687867 82.2828C1.0668 82.2828 6.5128 83.0804 6.5128 83.0804Z" fill="white"/>
    <path d="M8.73976 71.381C9.21398 71.381 9.59842 70.9966 9.59842 70.5224C9.59842 70.0481 9.21398 69.6637 8.73976 69.6637C8.26553 69.6637 7.88109 70.0481 7.88109 70.5224C7.88109 70.9966 8.26553 71.381 8.73976 71.381Z" fill="white"/>
    <path d="M19.3872 71.381C19.8614 71.381 20.2459 70.9966 20.2459 70.5224C20.2459 70.0481 19.8614 69.6637 19.3872 69.6637C18.913 69.6637 18.5285 70.0481 18.5285 70.5224C18.5285 70.9966 18.913 71.381 19.3872 71.381Z" fill="white"/>
    <path d="M8.49755 96.5483C8.97203 96.5483 9.35668 96.1636 9.35668 95.6892C9.35668 95.2147 8.97203 94.83 8.49755 94.83C8.02306 94.83 7.63841 95.2147 7.63841 95.6892C7.63841 96.1636 8.02306 96.5483 8.49755 96.5483Z" fill="white"/>
    <path d="M19.145 96.5483C19.6195 96.5483 20.0041 96.1636 20.0041 95.6892C20.0041 95.2147 19.6195 94.83 19.145 94.83C18.6705 94.83 18.2859 95.2147 18.2859 95.6892C18.2859 96.1636 18.6705 96.5483 19.145 96.5483Z" fill="white"/>
    <path d="M1.35896 89.167C1.83319 89.167 2.21762 88.7826 2.21762 88.3084C2.21762 87.8341 1.83319 87.4497 1.35896 87.4497C0.884728 87.4497 0.50029 87.8341 0.50029 88.3084C0.50029 88.7826 0.884728 89.167 1.35896 89.167Z" fill="white"/>
    <path d="M1.35896 78.5195C1.83319 78.5195 2.21762 78.1351 2.21762 77.6609C2.21762 77.1866 1.83319 76.8022 1.35896 76.8022C0.884728 76.8022 0.50029 77.1866 0.50029 77.6609C0.50029 78.1351 0.884728 78.5195 1.35896 78.5195Z" fill="white"/>
    <path d="M26.5258 89.4097C27.0003 89.4097 27.385 89.025 27.385 88.5505C27.385 88.0761 27.0003 87.6914 26.5258 87.6914C26.0513 87.6914 25.6667 88.0761 25.6667 88.5505C25.6667 89.025 26.0513 89.4097 26.5258 89.4097Z" fill="white"/>
    <path d="M26.5258 78.7617C27 78.7617 27.3845 78.3773 27.3845 77.903C27.3845 77.4288 27 77.0444 26.5258 77.0444C26.0516 77.0444 25.6671 77.4288 25.6671 77.903C25.6671 78.3773 26.0516 78.7617 26.5258 78.7617Z" fill="white"/>
    <path d="M129 43.5054C129 43.5054 128.201 38.5018 128.201 38.1532C128.201 37.8046 128.559 37.5214 129 37.5214C129.441 37.5214 129.799 37.8042 129.799 38.1532C129.799 38.5023 129 43.5054 129 43.5054Z" fill="white"/>
    <path d="M129 44.6735C129 44.6735 129.799 49.6766 129.799 50.0257C129.799 50.3747 129.441 50.6575 129 50.6575C128.559 50.6575 128.201 50.3752 128.201 50.0257C128.201 49.6761 129 44.6735 129 44.6735Z" fill="white"/>
    <path d="M128.416 44.0892C128.416 44.0892 123.413 44.8881 123.064 44.8881C122.715 44.8881 122.432 44.5302 122.432 44.0892C122.432 43.6486 122.715 43.2907 123.064 43.2907C123.413 43.2907 128.416 44.0892 128.416 44.0892Z" fill="white"/>
    <path d="M129.584 44.0892C129.584 44.0892 134.587 43.2907 134.936 43.2907C135.285 43.2907 135.568 43.6486 135.568 44.0892C135.568 44.5302 135.286 44.8881 134.936 44.8881C134.587 44.8881 129.584 44.0892 129.584 44.0892Z" fill="white"/>
    <path d="M128.587 43.6767C128.587 43.6767 124.484 40.704 124.238 40.4572C123.991 40.2108 124.044 39.7576 124.356 39.4459C124.668 39.1342 125.121 39.0814 125.367 39.3278C125.613 39.5742 128.587 43.6767 128.587 43.6767Z" fill="white"/>
    <path d="M129.413 44.5026C129.413 44.5026 133.516 47.4753 133.762 47.7222C134.009 47.969 133.956 48.4217 133.644 48.7339C133.332 49.0456 132.879 49.0984 132.633 48.8515C132.387 48.6046 129.413 44.5026 129.413 44.5026Z" fill="white"/>
    <path d="M128.587 44.5026C128.587 44.5026 125.613 48.6046 125.367 48.8515C125.121 49.0984 124.668 49.0456 124.356 48.7339C124.044 48.4217 123.991 47.969 124.238 47.7222C124.484 47.4753 128.587 44.5026 128.587 44.5026Z" fill="white"/>
    <path d="M129.413 43.6767C129.413 43.6767 132.387 39.5742 132.633 39.3278C132.879 39.0814 133.332 39.1342 133.644 39.4459C133.956 39.7576 134.009 40.2108 133.762 40.4572C133.516 40.704 129.413 43.6767 129.413 43.6767Z" fill="white"/>
    <path d="M128.606 43.1152C128.606 43.1152 124.492 35.0643 124.257 34.4819C124.022 33.8995 124.163 33.2937 124.571 33.1285C124.981 32.9633 125.502 33.3017 125.738 33.8841C125.973 34.4655 128.606 43.1152 128.606 43.1152Z" fill="white"/>
    <path d="M129.394 45.0645C129.394 45.0645 133.508 53.115 133.743 53.6978C133.978 54.2798 133.837 54.8855 133.429 55.0502C133.019 55.2159 132.498 54.878 132.262 54.2956C132.027 53.7132 129.394 45.0645 129.394 45.0645Z" fill="white"/>
    <path d="M128.025 44.4835C128.025 44.4835 119.974 48.5971 119.392 48.8323C118.809 49.068 118.204 48.9271 118.038 48.5178C117.873 48.1095 118.212 47.5868 118.794 47.3516C119.376 47.1164 128.025 44.4835 128.025 44.4835Z" fill="white"/>
    <path d="M129.975 43.6957C129.975 43.6957 138.026 39.5821 138.608 39.3469C139.191 39.1112 139.796 39.2526 139.962 39.6614C140.127 40.0702 139.788 40.5924 139.206 40.8276C138.624 41.0623 129.975 43.6957 129.975 43.6957Z" fill="white"/>
    <path d="M128.032 43.679C128.032 43.679 119.43 40.8953 118.852 40.6499C118.275 40.4049 117.946 39.8771 118.118 39.4706C118.29 39.0651 118.899 38.9349 119.477 39.1803C120.054 39.4249 128.032 43.679 128.032 43.679Z" fill="white"/>
    <path d="M129.968 44.5003C129.968 44.5003 138.57 47.284 139.148 47.529C139.725 47.7744 140.054 48.3027 139.882 48.7082C139.71 49.1147 139.101 49.2449 138.523 48.999C137.946 48.754 129.968 44.5003 129.968 44.5003Z" fill="white"/>
    <path d="M128.589 45.0576C128.589 45.0576 125.806 53.6596 125.56 54.2378C125.315 54.8156 124.787 55.1446 124.381 54.9724C123.975 54.7997 123.845 54.1912 124.09 53.6134C124.336 53.0352 128.589 45.0576 128.589 45.0576Z" fill="white"/>
    <path d="M129.411 43.1219C129.411 43.1219 132.194 34.5198 132.44 33.9421C132.685 33.3639 133.213 33.0353 133.619 33.2075C134.025 33.3797 134.155 33.9878 133.91 34.566C133.664 35.1442 129.411 43.1219 129.411 43.1219Z" fill="white"/>
    <path d="M129.003 51.1092C129.003 51.1092 129.803 56.9351 129.803 57.3411C129.803 57.7471 129.445 58.0775 129.004 58.0775C128.563 58.0775 128.206 57.7485 128.206 57.342C128.206 56.9355 129.003 51.1092 129.003 51.1092Z" fill="white"/>
    <path d="M128.998 36.5898C128.998 36.5898 128.197 31.1448 128.197 30.7654C128.197 30.386 128.555 30.0775 128.996 30.0775C129.437 30.0775 129.794 30.385 129.794 30.7649C129.794 31.1448 128.998 36.5898 128.998 36.5898Z" fill="white"/>
    <path d="M133.974 49.0475C133.974 49.0475 138.66 52.6016 138.946 52.8886C139.234 53.1761 139.214 53.6614 138.902 53.9736C138.59 54.2854 138.105 54.3054 137.818 54.0184C137.53 53.7319 133.974 49.0475 133.974 49.0475Z" fill="white"/>
    <path d="M123.704 38.7846C123.704 38.7846 119.288 35.5002 119.019 35.2319C118.751 34.9631 118.786 34.4927 119.097 34.181C119.409 33.8688 119.88 33.8338 120.148 34.1026C120.417 34.3704 123.704 38.7846 123.704 38.7846Z" fill="white"/>
    <path d="M133.974 39.107C133.974 39.107 137.53 34.4235 137.818 34.1365C138.105 33.8491 138.59 33.8691 138.902 34.1813C139.214 34.4931 139.234 34.9789 138.946 35.2659C138.66 35.5524 133.974 39.107 133.974 39.107Z" fill="white"/>
    <path d="M123.704 49.37C123.704 49.37 120.417 53.7847 120.148 54.0525C119.88 54.3213 119.409 54.2859 119.097 53.9741C118.786 53.6619 118.751 53.1915 119.019 52.9232C119.288 52.6549 123.704 49.37 123.704 49.37Z" fill="white"/>
    <path d="M136.032 44.0746C136.032 44.0746 141.858 43.2748 142.264 43.2748C142.671 43.2743 143 43.6322 143 44.0728C143 44.5138 142.671 44.8717 142.265 44.8717C141.859 44.8722 136.032 44.0746 136.032 44.0746Z" fill="white"/>
    <path d="M121.513 44.0804C121.513 44.0804 116.067 44.8798 115.688 44.8802C115.308 44.8802 115 44.5223 115 44.0818C115 43.6408 115.308 43.2828 115.688 43.2828C116.067 43.2828 121.513 44.0804 121.513 44.0804Z" fill="white"/>
    <path d="M123.74 32.381C124.214 32.381 124.598 31.9966 124.598 31.5224C124.598 31.0481 124.214 30.6637 123.74 30.6637C123.266 30.6637 122.881 31.0481 122.881 31.5224C122.881 31.9966 123.266 32.381 123.74 32.381Z" fill="white"/>
    <path d="M134.387 32.381C134.861 32.381 135.246 31.9966 135.246 31.5224C135.246 31.0481 134.861 30.6637 134.387 30.6637C133.913 30.6637 133.529 31.0481 133.529 31.5224C133.529 31.9966 133.913 32.381 134.387 32.381Z" fill="white"/>
    <path d="M123.498 57.5483C123.972 57.5483 124.357 57.1636 124.357 56.6892C124.357 56.2147 123.972 55.83 123.498 55.83C123.023 55.83 122.638 56.2147 122.638 56.6892C122.638 57.1636 123.023 57.5483 123.498 57.5483Z" fill="white"/>
    <path d="M134.145 57.5483C134.62 57.5483 135.004 57.1636 135.004 56.6892C135.004 56.2147 134.62 55.83 134.145 55.83C133.671 55.83 133.286 56.2147 133.286 56.6892C133.286 57.1636 133.671 57.5483 134.145 57.5483Z" fill="white"/>
    <path d="M116.359 50.167C116.833 50.167 117.218 49.7826 117.218 49.3084C117.218 48.8341 116.833 48.4497 116.359 48.4497C115.885 48.4497 115.5 48.8341 115.5 49.3084C115.5 49.7826 115.885 50.167 116.359 50.167Z" fill="white"/>
    <path d="M116.359 39.5195C116.833 39.5195 117.218 39.1351 117.218 38.6609C117.218 38.1866 116.833 37.8022 116.359 37.8022C115.885 37.8022 115.5 38.1866 115.5 38.6609C115.5 39.1351 115.885 39.5195 116.359 39.5195Z" fill="white"/>
    <path d="M141.526 50.4097C142 50.4097 142.385 50.025 142.385 49.5505C142.385 49.0761 142 48.6914 141.526 48.6914C141.051 48.6914 140.667 49.0761 140.667 49.5505C140.667 50.025 141.051 50.4097 141.526 50.4097Z" fill="white"/>
    <path d="M141.526 39.7617C142 39.7617 142.384 39.3773 142.384 38.903C142.384 38.4288 142 38.0444 141.526 38.0444C141.052 38.0444 140.667 38.4288 140.667 38.903C140.667 39.3773 141.052 39.7617 141.526 39.7617Z" fill="white"/>
    <path d="M87 111.505C87 111.505 86.201 106.502 86.201 106.153C86.201 105.805 86.5594 105.521 87 105.521C87.4405 105.521 87.7989 105.804 87.7989 106.153C87.7989 106.502 87 111.505 87 111.505Z" fill="white"/>
    <path d="M87 112.673C87 112.673 87.7989 117.677 87.7989 118.026C87.7989 118.375 87.4405 118.658 87 118.658C86.5594 118.658 86.201 118.375 86.201 118.026C86.201 117.676 87 112.673 87 112.673Z" fill="white"/>
    <path d="M86.4157 112.089C86.4157 112.089 81.4126 112.888 81.064 112.888C80.7149 112.888 80.4321 112.53 80.4321 112.089C80.4321 111.649 80.7149 111.291 81.064 111.291C81.4126 111.291 86.4157 112.089 86.4157 112.089Z" fill="white"/>
    <path d="M87.5843 112.089C87.5843 112.089 92.5874 111.291 92.9365 111.291C93.2851 111.291 93.5683 111.649 93.5683 112.089C93.5683 112.53 93.2855 112.888 92.9365 112.888C92.5874 112.888 87.5843 112.089 87.5843 112.089Z" fill="white"/>
    <path d="M86.5865 111.677C86.5865 111.677 82.4841 108.704 82.2381 108.457C81.9913 108.211 82.044 107.758 82.3562 107.446C82.6679 107.134 83.1206 107.081 83.3675 107.328C83.6134 107.574 86.5865 111.677 86.5865 111.677Z" fill="white"/>
    <path d="M87.4135 112.503C87.4135 112.503 91.5159 115.475 91.7619 115.722C92.0087 115.969 91.956 116.422 91.6438 116.734C91.3321 117.046 90.8794 117.098 90.6325 116.851C90.3866 116.605 87.4135 112.503 87.4135 112.503Z" fill="white"/>
    <path d="M86.5865 112.503C86.5865 112.503 83.6134 116.605 83.3675 116.851C83.1206 117.098 82.6679 117.046 82.3562 116.734C82.044 116.422 81.9913 115.969 82.2381 115.722C82.4841 115.475 86.5865 112.503 86.5865 112.503Z" fill="white"/>
    <path d="M87.4135 111.677C87.4135 111.677 90.3866 107.574 90.6325 107.328C90.8794 107.081 91.3321 107.134 91.6438 107.446C91.956 107.758 92.0087 108.211 91.7619 108.457C91.5159 108.704 87.4135 111.677 87.4135 111.677Z" fill="white"/>
    <path d="M86.6061 111.115C86.6061 111.115 82.4925 103.064 82.2573 102.482C82.0221 101.899 82.1625 101.294 82.5713 101.129C82.9806 100.963 83.5023 101.302 83.7375 101.884C83.9727 102.466 86.6061 111.115 86.6061 111.115Z" fill="white"/>
    <path d="M87.3939 113.065C87.3939 113.065 91.5076 121.115 91.7428 121.698C91.978 122.28 91.8375 122.886 91.4287 123.05C91.0194 123.216 90.4977 122.878 90.2625 122.296C90.0273 121.713 87.3939 113.065 87.3939 113.065Z" fill="white"/>
    <path d="M86.0251 112.483C86.0251 112.483 77.9742 116.597 77.3918 116.832C76.8094 117.068 76.2037 116.927 76.0385 116.518C75.8733 116.109 76.2116 115.587 76.794 115.352C77.3759 115.116 86.0251 112.483 86.0251 112.483Z" fill="white"/>
    <path d="M87.9749 111.696C87.9749 111.696 96.0258 107.582 96.6082 107.347C97.1906 107.111 97.7963 107.253 97.9615 107.661C98.1267 108.07 97.7884 108.592 97.206 108.828C96.6241 109.062 87.9749 111.696 87.9749 111.696Z" fill="white"/>
    <path d="M86.0321 111.679C86.0321 111.679 77.4301 108.895 76.8523 108.65C76.2746 108.405 75.9456 107.877 76.1178 107.471C76.29 107.065 76.899 106.935 77.4767 107.18C78.0545 107.425 86.0321 111.679 86.0321 111.679Z" fill="white"/>
    <path d="M87.9679 112.5C87.9679 112.5 96.5699 115.284 97.1477 115.529C97.7254 115.774 98.0544 116.303 97.8822 116.708C97.71 117.115 97.101 117.245 96.5233 116.999C95.9455 116.754 87.9679 112.5 87.9679 112.5Z" fill="white"/>
    <path d="M86.5893 113.058C86.5893 113.058 83.8057 121.66 83.5602 122.238C83.3147 122.816 82.7869 123.145 82.3809 122.972C81.9749 122.8 81.8452 122.191 82.0897 121.613C82.3357 121.035 86.5893 113.058 86.5893 113.058Z" fill="white"/>
    <path d="M87.4106 111.122C87.4106 111.122 90.1943 102.52 90.4398 101.942C90.6852 101.364 91.213 101.035 91.619 101.208C92.025 101.38 92.1552 101.988 91.9102 102.566C91.6643 103.144 87.4106 111.122 87.4106 111.122Z" fill="white"/>
    <path d="M87.0028 119.109C87.0028 119.109 87.8027 124.935 87.8027 125.341C87.8027 125.747 87.4452 126.077 87.0042 126.077C86.5632 126.077 86.2057 125.748 86.2057 125.342C86.2057 124.936 87.0028 119.109 87.0028 119.109Z" fill="white"/>
    <path d="M86.9977 104.59C86.9977 104.59 86.1973 99.1448 86.1973 98.7654C86.1973 98.386 86.5548 98.0775 86.9958 98.0775C87.4368 98.0775 87.7943 98.385 87.7943 98.7649C87.7943 99.1448 86.9977 104.59 86.9977 104.59Z" fill="white"/>
    <path d="M91.9742 117.047C91.9742 117.047 96.6595 120.602 96.9461 120.889C97.234 121.176 97.2139 121.661 96.9022 121.974C96.5905 122.285 96.1047 122.305 95.8177 122.018C95.5302 121.732 91.9742 117.047 91.9742 117.047Z" fill="white"/>
    <path d="M81.7038 106.785C81.7038 106.785 77.2877 103.5 77.0189 103.232C76.7506 102.963 76.7856 102.493 77.0973 102.181C77.4091 101.869 77.8799 101.834 78.1483 102.103C78.4171 102.37 81.7038 106.785 81.7038 106.785Z" fill="white"/>
    <path d="M91.9742 107.107C91.9742 107.107 95.5302 102.424 95.8177 102.137C96.1047 101.849 96.5905 101.869 96.9022 102.181C97.2139 102.493 97.234 102.979 96.9461 103.266C96.6595 103.552 91.9742 107.107 91.9742 107.107Z" fill="white"/>
    <path d="M81.7038 117.37C81.7038 117.37 78.4171 121.785 78.1483 122.053C77.8799 122.321 77.4091 122.286 77.0973 121.974C76.7856 121.662 76.7506 121.192 77.0189 120.923C77.2877 120.655 81.7038 117.37 81.7038 117.37Z" fill="white"/>
    <path d="M94.0317 112.075C94.0317 112.075 99.8576 111.275 100.264 111.275C100.671 111.274 101 111.632 101 112.073C101 112.514 100.671 112.872 100.265 112.872C99.8585 112.872 94.0317 112.075 94.0317 112.075Z" fill="white"/>
    <path d="M79.5128 112.08C79.5128 112.08 74.0668 112.88 73.6879 112.88C73.3075 112.88 73 112.522 73 112.082C73 111.641 73.3075 111.283 73.6879 111.283C74.0668 111.283 79.5128 112.08 79.5128 112.08Z" fill="white"/>
    <path d="M81.7398 100.381C82.214 100.381 82.5984 99.9966 82.5984 99.5224C82.5984 99.0481 82.214 98.6637 81.7398 98.6637C81.2655 98.6637 80.8811 99.0481 80.8811 99.5224C80.8811 99.9966 81.2655 100.381 81.7398 100.381Z" fill="white"/>
    <path d="M92.3872 100.381C92.8614 100.381 93.2459 99.9966 93.2459 99.5224C93.2459 99.0481 92.8614 98.6637 92.3872 98.6637C91.913 98.6637 91.5285 99.0481 91.5285 99.5224C91.5285 99.9966 91.913 100.381 92.3872 100.381Z" fill="white"/>
    <path d="M81.4976 125.548C81.972 125.548 82.3567 125.164 82.3567 124.689C82.3567 124.215 81.972 123.83 81.4976 123.83C81.0231 123.83 80.6384 124.215 80.6384 124.689C80.6384 125.164 81.0231 125.548 81.4976 125.548Z" fill="white"/>
    <path d="M92.145 125.548C92.6195 125.548 93.0042 125.164 93.0042 124.689C93.0042 124.215 92.6195 123.83 92.145 123.83C91.6705 123.83 91.2859 124.215 91.2859 124.689C91.2859 125.164 91.6705 125.548 92.145 125.548Z" fill="white"/>
    <path d="M74.3589 118.167C74.8332 118.167 75.2176 117.783 75.2176 117.308C75.2176 116.834 74.8332 116.45 74.3589 116.45C73.8847 116.45 73.5003 116.834 73.5003 117.308C73.5003 117.783 73.8847 118.167 74.3589 118.167Z" fill="white"/>
    <path d="M74.3589 107.52C74.8332 107.52 75.2176 107.135 75.2176 106.661C75.2176 106.187 74.8332 105.802 74.3589 105.802C73.8847 105.802 73.5003 106.187 73.5003 106.661C73.5003 107.135 73.8847 107.52 74.3589 107.52Z" fill="white"/>
    <path d="M99.5258 118.41C100 118.41 100.385 118.025 100.385 117.551C100.385 117.076 100 116.691 99.5258 116.691C99.0513 116.691 98.6667 117.076 98.6667 117.551C98.6667 118.025 99.0513 118.41 99.5258 118.41Z" fill="white"/>
    <path d="M99.5258 107.762C100 107.762 100.384 107.377 100.384 106.903C100.384 106.429 100 106.044 99.5258 106.044C99.0516 106.044 98.6671 106.429 98.6671 106.903C98.6671 107.377 99.0516 107.762 99.5258 107.762Z" fill="white"/>
    </svg>
    