<svg width="84" height="70" viewBox="0 0 84 70" fill="none" xmlns="http://www.w3.org/2000/svg">
<path d="M14.0586 64.6186L14.1294 0.167716L11.0603 0.164345L10.9895 64.6152L14.0586 64.6186Z" fill="#979797"/>
<path d="M41.6804 64.6489L41.7512 0.198058L38.6821 0.194687L38.6113 64.6456L41.6804 64.6489Z" fill="#979797"/>
<path d="M69.3022 64.6793L69.373 0.228392L66.3039 0.225021L66.2331 64.6759L69.3022 64.6793Z" fill="#979797"/>
<path fill-rule="evenodd" clip-rule="evenodd" d="M0.249359 63.0689L83.1148 63.1599L83.108 69.2981L0.242617 69.2071L0.249359 63.0689Z" fill="#9F5757"/>
<path d="M12.5662 26.2533C16.8037 26.2579 20.2427 22.8265 20.2473 18.589C20.252 14.3515 16.8205 10.9125 12.583 10.9078C8.34549 10.9032 4.90652 14.3346 4.90187 18.5721C4.89721 22.8097 8.32863 26.2486 12.5662 26.2533Z" fill="#FFAF40"/>
<path d="M12.5476 43.1333C16.7851 43.1379 20.2241 39.7065 20.2288 35.469C20.2334 31.2315 16.802 27.7925 12.5645 27.7878C8.32695 27.7832 4.88798 31.2146 4.88333 35.4521C4.87867 39.6897 8.31009 43.1286 12.5476 43.1333Z" fill="#F5413E"/>
<path d="M40.1694 43.1636C44.407 43.1683 47.8459 39.7368 47.8506 35.4993C47.8552 31.2618 44.4238 27.8228 40.1863 27.8182C35.9488 27.8135 32.5098 31.2449 32.5051 35.4825C32.5005 39.72 35.9319 43.159 40.1694 43.1636Z" fill="#F5413E"/>
<path d="M12.5291 60.0133C16.7666 60.0179 20.2056 56.5865 20.2102 52.349C20.2149 48.1114 16.7835 44.6725 12.5459 44.6678C8.30841 44.6632 4.86944 48.0946 4.86479 52.3321C4.86013 56.5696 8.29155 60.0086 12.5291 60.0133Z" fill="#5B68C0"/>
<path d="M40.1509 60.0436C44.3884 60.0483 47.8274 56.6168 47.832 52.3793C47.8367 48.1418 44.4053 44.7028 40.1677 44.6982C35.9302 44.6935 32.4913 48.1249 32.4866 52.3625C32.4819 56.6 35.9134 60.0389 40.1509 60.0436Z" fill="#5B68C0"/>
<path d="M67.7727 60.074C72.0102 60.0786 75.4492 56.6472 75.4538 52.4097C75.4585 48.1721 72.0271 44.7332 67.7895 44.7285C63.552 44.7239 60.113 48.1553 60.1084 52.3928C60.1037 56.6303 63.5352 60.0693 67.7727 60.074Z" fill="#5B68C0"/>
</svg>
